<!-- Generated by IcoMoon.io -->
<svg version="1.1" xmlns="http://www.w3.org/2000/svg" width="448" height="448" viewBox="0 0 448 448">
<title>trash</title>
<g id="icomoon-ignore">
</g>
<path fill="#000" d="M403.75 0c22.75 0 43.75 17 43.75 40.75 0 13.25-5.25 26-11.25 37.75-19.5 37-85 159.25-116.25 188-15.25 14.25-33.25 22.75-54.5 22.75-42.25 0-76.75-36-76.75-78 0-20 8.25-39.5 23-53l159.5-144.75c8.75-8 20.25-13.5 32.5-13.5zM176.5 258.5c13 25.25 36.75 44.25 64.25 51.5l0.25 17.75c1.5 71.25-48 120.25-119.5 120.25-84.75 0-121.5-67.5-121.5-144.25 9.25 6.25 41.5 32 52 32 6.25 0 11.5-3.5 13.75-9.25 21.25-55.5 54.5-65.5 110.75-68z"></path>
</svg>
